<?xml version="1.0" encoding="UTF-8"?>
<svg xmlns="http://www.w3.org/2000/svg" xmlns:xlink="http://www.w3.org/1999/xlink" width="1000px" height="px" viewBox="0 0 1000 1000" version="1.1">
<g id="surface1">
<path style=" stroke:none;fill-rule:nonzero;fill:rgb(48.627451%,30.19608%,100%);fill-opacity:1;" d="M 153.605469 238.394531 C 151.9375 190.25 189.457031 145.832031 240.1875 145.832031 L 759.894531 145.832031 C 810.625 145.832031 848.144531 190.25 846.457031 238.394531 C 844.855469 284.667969 846.9375 344.582031 862.019531 393.457031 C 877.144531 442.480469 902.667969 473.457031 944.457031 477.4375 L 944.457031 522.582031 C 902.667969 526.5625 877.167969 557.542969 862.019531 606.5625 C 846.9375 655.417969 844.855469 715.355469 846.457031 761.625 C 848.125 809.75 810.605469 854.167969 759.894531 854.167969 L 240.1875 854.167969 C 189.480469 854.167969 151.9375 809.75 153.625 761.605469 C 155.230469 715.332031 153.144531 655.417969 138.0625 606.542969 C 122.9375 557.519531 97.355469 526.542969 55.5625 522.5625 L 55.5625 477.417969 C 97.355469 473.4375 122.917969 442.457031 138.0625 393.4375 C 153.125 344.582031 155.230469 284.667969 153.605469 238.394531 Z M 153.605469 238.394531 "/>
<path style=" stroke:none;fill-rule:nonzero;fill:rgb(100%,100%,100%);fill-opacity:1;" d="M 564.019531 488.832031 L 564.019531 488.25 C 602.625 481.582031 632.75 445.394531 632.75 405.542969 C 632.75 377.375 621.917969 353.5 601.417969 336.542969 C 580.980469 319.625 552.3125 310.6875 518.480469 310.6875 L 363.542969 310.6875 L 363.542969 689.167969 L 519.269531 689.167969 C 559.730469 689.167969 593.332031 679.292969 616.417969 660.582031 C 639.519531 641.855469 651.75 614.605469 651.75 581.769531 C 651.730469 532.167969 616.519531 494.917969 564.019531 488.832031 Z M 491.457031 471 L 425.1875 471 L 425.1875 360.207031 L 504.019531 360.207031 C 547.269531 360.207031 571.082031 379.1875 571.082031 413.644531 C 571.105469 450.625 542.8125 471 491.457031 471 Z M 425.1875 517.375 L 503.5 517.375 C 560.082031 517.375 588.75 537.8125 588.75 578.125 C 588.75 618.375 560.480469 639.644531 506.980469 639.644531 L 425.1875 639.644531 Z M 425.1875 517.375 "/>
</g>
</svg>
