<?xml version="1.0" encoding="UTF-8"?>
<svg xmlns="http://www.w3.org/2000/svg" xmlns:xlink="http://www.w3.org/1999/xlink" width="1000px" height="px" viewBox="0 0 1000 1000" version="1.1">
<g id="surface1">
<path style=" stroke:none;fill-rule:nonzero;fill:rgb(30.19608%,71.372551%,67.450982%);fill-opacity:1;" d="M 916.667969 500 C 916.667969 269.882812 730.117188 83.332031 500 83.332031 C 269.882812 83.332031 83.332031 269.882812 83.332031 500 C 83.332031 730.117188 269.882812 916.667969 500 916.667969 C 730.117188 916.667969 916.667969 730.117188 916.667969 500 Z M 916.667969 500 "/>
<path style=" stroke:none;fill-rule:nonzero;fill:rgb(100%,100%,100%);fill-opacity:1;" d="M 694.9375 447.917969 L 509.894531 447.917969 C 506 447.917969 503.480469 443.792969 505.269531 440.3125 L 610.0625 237.292969 C 612.769531 232.019531 606 227.042969 601.769531 231.1875 L 305.9375 522.3125 C 302.625 525.582031 304.9375 531.230469 309.582031 531.230469 L 504.167969 531.230469 C 508.375 531.230469 510.832031 535.957031 508.4375 539.417969 L 359.980469 753.269531 C 356.4375 758.375 363.1875 764.269531 367.769531 760.082031 L 698.457031 456.957031 C 701.957031 453.75 699.6875 447.917969 694.9375 447.917969 Z M 694.9375 447.917969 "/>
</g>
</svg>
